<svg id="Layer_1" data-name="Layer 1" xmlns="http://www.w3.org/2000/svg" xmlns:xlink="http://www.w3.org/1999/xlink" viewBox="0 0 142.52 27.32"><defs><style>.cls-1{fill:none;}.cls-2{fill:#a4cd47;}.cls-3{clip-path:url(#clip-path);}.cls-4{fill:url(#linear-gradient);}.cls-5{fill:#fff;}.cls-6{clip-path:url(#clip-path-2);}.cls-7{stroke:#88d6f6;stroke-miterlimit:10;stroke-width:0.15px;fill:url(#linear-gradient-2);}.cls-8{clip-path:url(#clip-path-3);}.cls-9{fill:url(#linear-gradient-3);}.cls-10{clip-path:url(#clip-path-4);}.cls-11{fill:url(#linear-gradient-4);}</style><clipPath id="clip-path"><path class="cls-1" d="M53.3,11a7.75,7.75,0,0,1-.77-4.33c.15-2.33,2.32-4.18,5.11-4.34a6.25,6.25,0,0,0,4-2.32c-.15,4.33-.31,6.66-4.8,7.59C54.85,8.2,53.77,9.13,53.3,11Z"/></clipPath><linearGradient id="linear-gradient" x1="832.04" y1="-261.44" x2="832.04" y2="-247.65" gradientTransform="translate(-774.98 278.77) scale(1 1.08)" gradientUnits="userSpaceOnUse"><stop offset="0" stop-color="#afca45"/><stop offset="0.74" stop-color="#7eba4b"/></linearGradient><clipPath id="clip-path-2"><path class="cls-1" d="M44.86,19.81H43.24C42.47,10.68,36.66,5,23.66,4.92V5h0v0h-5.5V19.81H15.82c-5.24.16-7.57-4-7.72-8.5V4.92H3.69V9.06c.15,6.34,1.39,10.06,2.78,11.76,2.48,3.56,8.44,6,18.81,6.5h0V12.54h2.79c4.41,0,7.27,3.94,7.27,8.35v6.43c11.31-.62,16.65-3.4,19-6.5,2.17-2.94,2.94-5.57,2.94-11.76v-1h-.16a5.52,5.52,0,0,0-3.79,4c.16,5-3.79,7.59-8.44,7.74"/></clipPath><linearGradient id="linear-gradient-2" x1="30.7" y1="3.41" x2="30.7" y2="29.1" gradientUnits="userSpaceOnUse"><stop offset="0" stop-color="#149ed7"/><stop offset="0.29" stop-color="#149ed7"/><stop offset="0.82" stop-color="#088899"/><stop offset="0.99" stop-color="#088899"/></linearGradient><clipPath id="clip-path-3"><path class="cls-1" d="M3.84,5v4C4,15.4,5.24,19.12,6.63,20.82c2.48,3.56,8.44,5.73,18.65,6.5h0l-7.12-.07H17.7C5,27.09.82,20.59.05,11.15L0,4.92H3.84"/></clipPath><linearGradient id="linear-gradient-3" x1="30.93" y1="2.63" x2="30.93" y2="30.96" gradientUnits="userSpaceOnUse"><stop offset="0" stop-color="#31b0d9"/><stop offset="0.47" stop-color="#31b0d9"/><stop offset="0.81" stop-color="#1795a8"/><stop offset="0.99" stop-color="#1795a8"/></linearGradient><clipPath id="clip-path-4"><path class="cls-1" d="M35.34,27.32c11.15-.93,16.49-3.4,18.81-6.5,2.17-2.94,2.94-5.57,2.94-11.76v-1h0c2-.46,3.1-.77,4.26-2.79v.16l-.15,7.74h0c-1,7.81-5.58,13-17,14.12l-8.75,0"/></clipPath><linearGradient id="linear-gradient-4" x1="31.01" y1="2.79" x2="31.01" y2="31.12" xlink:href="#linear-gradient-3"/></defs><title>Artboard 4</title><path class="cls-2" d="M62.66,4.71h0a5.59,5.59,0,0,1,5.59,5.59v8.38a0,0,0,0,1,0,0H62.66a0,0,0,0,1,0,0v-14A0,0,0,0,1,62.66,4.71Z"/><path class="cls-2" d="M72.9,4.71h0a5.59,5.59,0,0,1,5.59,5.59v8.38a0,0,0,0,1,0,0H72.9a0,0,0,0,1,0,0v-14A0,0,0,0,1,72.9,4.71Z"/><path class="cls-2" d="M70.58,26.12a7.92,7.92,0,0,1-7.92-7.91h5.59a2.33,2.33,0,1,0,4.65,0h5.59A7.92,7.92,0,0,1,70.58,26.12Z"/><path class="cls-2" d="M83.15,4.71h0a5.59,5.59,0,0,1,5.59,5.59v8.38a0,0,0,0,1,0,0H83.15a0,0,0,0,1,0,0v-14A0,0,0,0,1,83.15,4.71Z"/><path class="cls-2" d="M80.82,26.12a7.92,7.92,0,0,1-7.92-7.91h5.59a2.33,2.33,0,1,0,4.66,0h5.58A7.92,7.92,0,0,1,80.82,26.12Z"/><path class="cls-2" d="M100.4,26.08a10.67,10.67,0,1,1,10.67-10.67A10.68,10.68,0,0,1,100.4,26.08Zm0-16.76a6.1,6.1,0,1,0,6.09,6.09A6.1,6.1,0,0,0,100.4,9.32Z"/><rect class="cls-2" x="106.49" y="15.41" width="4.57" height="10.24"/><rect class="cls-2" x="112.11" y="14.48" width="4.57" height="11.17"/><path class="cls-2" d="M120.45,4.11h4.66a0,0,0,0,1,0,0v0a4.66,4.66,0,0,1-4.66,4.66h0a0,0,0,0,1,0,0V4.11A0,0,0,0,1,120.45,4.11Z"/><path class="cls-2" d="M116.72,15h-4.65a11.16,11.16,0,0,1,8.44-10.84l1.13,4.52A6.51,6.51,0,0,0,116.72,15Z"/><path class="cls-2" d="M131.81,26.12a10.71,10.71,0,1,1,10.71-10.71h-4.05a6.66,6.66,0,1,0-1.95,4.71L139.38,23A10.63,10.63,0,0,1,131.81,26.12Z"/><polygon class="cls-2" points="142.52 17.44 142.52 14.55 141.33 13.39 124.67 13.39 124.67 17.44 142.52 17.44"/><g class="cls-3"><rect class="cls-4" x="52.75" y="-2.62" width="8.6" height="14.84" transform="translate(94 48.55) rotate(-135)"/></g><path class="cls-5" d="M57.21,4.83a6.65,6.65,0,0,0-3.1,2.08,6.31,6.31,0,0,0-.81,2.72c-.09-1.88.24-3,.84-3.73a6.62,6.62,0,0,1,2.94-1.65c2.05-.66,3.23-1.35,4.15-3.2C60.29,3.62,59.11,4.17,57.21,4.83Z"/><g class="cls-6"><rect class="cls-7" x="1.6" y="3.41" width="58.21" height="25.7"/></g><g class="cls-8"><rect class="cls-9" x="-3.36" y="2.63" width="68.58" height="28.33"/></g><g class="cls-10"><rect class="cls-11" x="-3.28" y="2.79" width="68.58" height="28.33"/></g></svg>